# xmcd CD database file
#
# Track frame offsets:
#	150
#	26549
#	52272
#	74652
#	105847
#	140100
#	155461
#	179984
#	204683
#
# Disc length: 3175 seconds
#
# Revision: 0
# Processed by: cddbd v1.5.2PL0 Copyright (c) Steve Scherf et al.
# Submitted via: CDex 1.51
#
DISCID=8d0c6509
DTITLE=Airelle Besson - Radio One
DYEAR=2016
DGENRE=Jazz
TTITLE0=Radio One (Football Games On Radio One)
TTITLE1=All I Want
TTITLE2=The Painter And The Boxer
TTITLE3=La Galactée
TTITLE4=Around The World
TTITLE5=Candy Parties
TTITLE6=No Time To Think
TTITLE7=People's Thoughts
TTITLE8=Titi
EXTD=YEAR: 2016
EXTT0=
EXTT1=
EXTT2=
EXTT3=
EXTT4=
EXTT5=
EXTT6=
EXTT7=
EXTT8=
PLAYORDER=
